<?xml version="1.0" encoding="UTF-8" standalone="no"?>
<svg
   xmlns:dc="http://purl.org/dc/elements/1.1/"
   xmlns:cc="http://creativecommons.org/ns#"
   xmlns:rdf="http://www.w3.org/1999/02/22-rdf-syntax-ns#"
   xmlns:svg="http://www.w3.org/2000/svg"
   xmlns="http://www.w3.org/2000/svg"
   xmlns:sodipodi="http://sodipodi.sourceforge.net/DTD/sodipodi-0.dtd"
   xmlns:inkscape="http://www.inkscape.org/namespaces/inkscape"
   id="Ebene_1"
   xml:space="preserve"
   height="845"
   width="1590"
   version="1.1"
   viewBox="0 0 1590 845"
   inkscape:version="0.48.2 r9819"
   sodipodi:docname="Start.svg"><defs
   id="defs21" /><sodipodi:namedview
   pagecolor="#ffffff"
   bordercolor="#666666"
   borderopacity="1"
   objecttolerance="10"
   gridtolerance="10"
   guidetolerance="10"
   inkscape:pageopacity="0"
   inkscape:pageshadow="2"
   inkscape:window-width="1643"
   inkscape:window-height="961"
   id="namedview19"
   showgrid="false"
   inkscape:zoom="0.74716981"
   inkscape:cx="1279.3985"
   inkscape:cy="507.96124"
   inkscape:window-x="125"
   inkscape:window-y="9"
   inkscape:window-maximized="0"
   inkscape:current-layer="Ebene_1" /><metadata
   id="metadata33"><rdf:RDF><cc:Work
       rdf:about=""><dc:format>image/svg+xml</dc:format><dc:type
         rdf:resource="http://purl.org/dc/dcmitype/StillImage" /><dc:title /></cc:Work></rdf:RDF></metadata>
<rect
   id="rect3"
   height="500"
   width="500"
   stroke="#000"
   stroke-miterlimit="10"
   y="190"
   x="538"
   fill="#676767" />
<rect
   id="rect5"
   height="500"
   width="500"
   stroke="#000"
   stroke-miterlimit="10"
   y="190"
   x="1058"
   fill="none" />
<text
   id="text7"
   font-family="Arial"
   font-size="96px"
   y="288.82813"
   x="551.67188"
   font-weight="bold"
   fill="#ffffff">WinCos</text>

<text
   id="text9"
   font-size="40px"
   y="334.53125"
   x="551.82422"
   font-family="Arial"
   fill="#ffffff">Version 2</text>

<g
   id="g11"
   fill="#008d8e">
	<path
   id="path13"
   d="m1558,796.97v0.12c-0.245,1.27-0.282,2.747-0.545,3.998-36.826-0.096-74.125-0.061-111.15-0.061-1.684,0-3.196-0.051-4.604,0.243-2.497,0.52-4.635,1.845-6.179,3.452-1.64,1.707-2.804,3.801-3.21,6.481-0.493,3.249,0.322,5.87,1.514,7.935,1.144,1.98,2.96,3.609,4.847,4.726,0,0-8.256,0.262-11.873-0.183-3.461-0.425-6.183-1.923-8.117-3.998-1.931-2.07-3.483-4.78-3.694-8.419-0.209-3.597,1.023-6.907,2.907-9.208,1.754-2.141,4.18-3.982,7.39-4.663,3.152-0.67,7.541-0.425,11.691-0.425,40.302,0.002,80.898,0.002,121.02,0.002z" />
	<path
   id="path15"
   d="m1452.5,804.66c0.018,0,4.271-0.003,6.36,0.061,2.127,0.065,3.958,0.168,5.089,1.333,1.317,1.358,1.514,4.617,0.182,6.481-0.446,0.624-1.045,0.975-1.515,1.393,1.504,0.911,2.913,2.063,2.665,4.725-0.25,2.683-2.424,4.864-5.27,5.149-1.528,0.152-3.296,0-5.088,0h-5.149l2.726-19.142zm7.027,7.148c0.642-0.342,0.978-1.57,0.605-2.363-0.426-0.907-1.664-0.715-2.908-0.727l-0.545,3.331c1.13-0.058,2.127,0.142,2.848-0.241zm-0.06,7.451c0.287-0.253,0.61-0.818,0.666-1.333,0.236-2.218-1.824-1.985-3.938-1.938l-0.545,3.695c1.546-0.094,3.022,0.275,3.817-0.424z" />
	<path
   id="path17"
   d="m1475.3,804.66-1.333,9.691c-0.164,1.118-0.479,2.585-0.182,3.453,0.749,2.182,5.122,2.158,6.239,0.363,0.477-0.766,0.538-1.986,0.727-3.21,0.505-3.271,0.94-7.247,1.394-10.298h5.27c-0.412,3.396-0.94,7.178-1.453,10.661-0.28,1.9-0.395,3.598-1.091,4.967-0.646,1.271-1.613,2.41-2.968,3.09-1.774,0.889-4.407,1.199-6.542,0.969-3.976-0.428-7.208-2.669-7.026-7.208,0.041-1.027,0.226-2.093,0.363-3.15l1.237-9.328h5.365z" />
	<path
   id="path19"
   d="m1480.2,804.66c-0.291,2.193-0.506,4.461-0.848,6.603h-3.028c0.264-2.219,0.474-4.492,0.848-6.603h3.028z" />
	<path
   id="path21"
   d="m1492.2,804.66h5.148c-0.266,2.439-0.688,4.723-0.969,7.148,1.979,0.141,4.221,0.02,6.3,0.06,0.384-2.361,0.694-4.798,1.029-7.208h5.21c-0.835,6.434-1.811,12.728-2.666,19.142h-5.209c0.268-2.458,0.686-4.768,0.969-7.208-1.979-0.142-4.22-0.021-6.299-0.062-0.366,2.421-0.729,4.844-1.03,7.33h-5.27c0.972-6.357,1.76-12.898,2.787-19.202z" />
	<path
   id="path23"
   d="m1518.9,804.66c-0.61,4.942-1.35,9.757-2.06,14.599h6.42c-0.168,1.548-0.429,3.003-0.605,4.543h-11.63c0.85-6.359,1.805-12.813,2.686-19.142h5.189z" />
	<path
   id="path25"
   d="m1538.9,804.66c-0.137,1.397-0.355,2.713-0.545,4.059h-5.694l-0.484,3.21,5.755,0.062-0.605,4.058h-5.694l-0.484,3.15,5.997,0.061-0.667,4.543h-11.205c0.861-6.347,2.687-19.142,2.687-19.142s7.325-0.001,10.939-0.001z" />
	<path
   id="path27"
   d="m1543.2,804.66c2.529,0.018,4.983-0.074,7.329,0.121,1.624,0.136,2.89,0.304,3.876,1.091,1.062,0.846,1.813,2.29,1.938,3.937,0.25,3.249-1.258,5.984-4.118,6.724,1.401,2.454,2.924,4.789,4.3,7.27h-5.693s-2.939-5.164-4.119-7.208c-0.334,2.392-0.675,4.776-0.969,7.208h-5.271c0.883-6.408,1.755-12.826,2.727-19.143zm7.995,6.239c0.029-1.947-1.289-2.366-3.271-2.241h-0.099c-0.19,1.466-0.45,3.064-0.627,4.543,2.319,0.315,3.968-0.381,3.997-2.302z" />
</g>
<text
   id="text9-1"
   font-size="40px"
   y="356.58203"
   x="1148.1641"
   font-family="Arial"
   fill="#000000">&quot;Customer Logo&quot;</text>

<text
   id="text9-1-7"
   font-size="20px"
   y="390.79102"
   x="1148.1641"
   font-family="Arial"
   fill="#000000">Please delete text if no Logo existing</text>

<text
   xml:space="preserve"
   style="font-size:20px;font-style:normal;font-weight:normal;line-height:125%;letter-spacing:0px;word-spacing:0px;fill:#000000;fill-opacity:1;stroke:none;font-family:Sans"
   x="1062.9808"
   y="218.97614"
   id="text2998"
   sodipodi:linespacing="125%"><tspan
     sodipodi:role="line"
     id="tspan3000"
     x="1062.9808"
     y="218.97614"
     style="font-size:32px;fill:#f70000;fill-opacity:1">VOC is starting now...</tspan></text>
</svg>