<svg xmlns="http://www.w3.org/2000/svg" width="640" height="480" xmlns:xlink="http://www.w3.org/1999/xlink">
  <style type="text/css">
    ._s4 {visibility:hidden;}
    .s4 ._s4 {visibility:visible;}
  </style>
  <defs>
    <linearGradient id="linearGradientWarning" x1="0.78589" y1="0.60866" x2="0.56764" y2="0.09276">
      <stop id="stop4599-1" offset="0" stop-color="#ffff00" />
      <stop id="stop4601-7" offset="1" stop-color="#cdaa39" />
    </linearGradient>
    <symbol id="sVisuStates_s4" overflow="visible">
      <g idorigin="Filling">
		<rect height="22" width="22" y="88" x="0.00194" fill="none"/>
		<path d="M9.5533,93.45,4.2924,98.31,4.2924,88.59,9.5533,93.45,9.5533,93.45z" fill="#F00"/>
        <rect height="22" width="4" y="88" x="8.8891" fill="#6188ff"/>
		<path d="M8.8782,88.5,12.878,88.5" stroke="#91acff" stroke-width="1px" fill="none"/>
		<path d="M8.8782,92.5,12.878,92.5" stroke="#91acff" stroke-width="1px" fill="none"/>
		<path d="M8.8782,96.5,12.878,96.5" stroke="#91acff" stroke-width="1px" fill="none"/>
		<path d="M8.9003,96.5,12.9,96.5" stroke="#91acff" stroke-width="1px" fill="none"/>
		<path d="M8.9003,100.5,12.9,100.5" stroke="#91acff" stroke-width="1px" fill="none"/>
		<path d="M8.9003,104.5,12.9,104.5" stroke="#91acff" stroke-width="1px" fill="none"/>
		<path d="M8.9003,104.48,12.9,104.48" stroke="#91acff" stroke-width="1px" fill="none"/>
		<path d="M8.9003,108.48,12.9,108.48" stroke="#91acff" stroke-width="1px" fill="none"/>
		<path stroke-linejoin="miter" d="M16.734,108.34,5.0729,108.32,10.917,97.64,16.734,108.34,16.734,108.34,16.734,108.34,16.734,108.34z" stroke="#000" stroke-linecap="butt" stroke-miterlimit="4" stroke-width="1.63227999" fill="url(#linearGradientWarning)"/>
		<rect stroke-linejoin="miter" height="3.4062" width="0.5" stroke="#000" stroke-linecap="butt" stroke-miterlimit="4" y="101.55" x="10.645" fill="#FFF"/>
		<rect stroke-linejoin="miter" height="0.72854" width="0.88479" stroke="#000" stroke-linecap="butt" stroke-miterlimit="4" y="106.17" x="10.469" stroke-width="0.61521" fill="#000"/>
      </g>
    </symbol>
  </defs>
  <text x="30" y="30" font-size="32" fill="Red">Don't Change Anything with Inkscape!</text>
  <text x="30" y="440" font-size="32" fill="Red">Need to do it with XML Editor manually</text>
  <g id="130" title="519" transform="translate(-600,-100)" onclick="viewer.CallFunction('BIN519','Storage');" onactivate="519">
    <path id="131" title="519" onactivate="519" style="color:#000000;enable-background:accumulate;" fill="#F0F0F0" stroke="#000000" stroke-width="1" stroke-dasharray="none" stroke-miterlimit="4" d="m676,215,37,0,0,260-19,14-18-14,0-260z" />
    <text id="132" title="519" transform="matrix(0,1,-1,0,0,0)" onactivate="519" x="262" y="-700.5" font-family="Bitstream Vera Sans" font-size="40px" fill="#000000">
      <tspan id="133" x="262" y="-700.5" font-family="Arial" font-size="13px">Product</tspan>
    </text>
    <g id="134" title="519" onactivate="519">
      <rect id="135" title="519" onactivate="519" fill="#0000FF" x="680" y="263" width="11" height="174" />
      <g id="136" title="519" onactivate="519" stroke-dasharray="none" stroke-miterlimit="4" stroke-width="1" fill="none">
        <path id="137" title="519" onactivate="519" style="color:#000000;enable-background:accumulate;" stroke="#808081" d="m691.5,262.5-11.5,0,0,175.5" />
        <path id="138" title="519" onactivate="519" style="color:#000000;enable-background:accumulate;" stroke="#FFFFFF" d="m691,263,0,174.5-10.5,0" />
        <path id="139" title="519" onactivate="519" style="color:#000000;enable-background:accumulate;" stroke="#FFFFFF" d="m679.5,438.5,12.5,0,0-176.5" />
        <path id="140" title="519" onactivate="519" style="color:#000000;enable-background:accumulate;" stroke="#808081" d="m692.5,261.5-13.5,0,0,177.5" />
      </g>
    </g>
    <text id="141" title="519" onactivate="519" x="694.01953" y="252" style="text-anchor:middle;text-align:center;" font-family="Bitstream Vera Sans" font-size="40px" fill="#000000">
      <tspan id="142" x="694.01953" y="252" style="text-anchor:middle;text-align:center;" font-family="Arial" font-size="12px">100</tspan>
    </text>
    <g id="143" title="519" onactivate="519" class="s1 s2 s3 s4 s5 s6 s7 s8 s9 s10 s11 s12 s13">
      <use xlink:href="#sVisuStates_s1" x="678" y="260" overflow="visible" class="_s1"/>
      <use xlink:href="#sVisuStates_s2" x="678" y="260" overflow="visible" class="_s2"/>
      <use xlink:href="#sVisuStates_s3" x="678" y="260" overflow="visible" class="_s3"/>
      <use xlink:href="#sVisuStates_s4" x="678" y="260" overflow="visible" class="_s4"/>
      <use xlink:href="#sVisuStates_s5" x="678" y="260" overflow="visible" class="_s5"/>
      <use xlink:href="#sVisuStates_s6" x="678" y="260" overflow="visible" class="_s6"/>
      <use xlink:href="#sVisuStates_s7" x="678" y="260" overflow="visible" class="_s7"/>
      <use xlink:href="#sVisuStates_s8" x="678" y="260" overflow="visible" class="_s8"/>
      <use xlink:href="#sVisuStates_s9" x="678" y="260" overflow="visible" class="_s9"/>
      <use xlink:href="#sVisuStates_s10" x="678" y="260" overflow="visible" class="_s10"/>
      <use xlink:href="#sVisuStates_s11" x="678" y="260" overflow="visible" class="_s11"/>
      <use xlink:href="#sVisuStates_s12" x="678" y="260" overflow="visible" class="_s12"/>
      <use xlink:href="#sVisuStates_s13" x="678" y="260" overflow="visible" class="_s13"/>
    </g>
  </g>
  <g transform="translate(-300,-170)" onactivate="552" onclick="Storage">
    <path stroke-linejoin="miter" style="color: rgb(0, 0, 0);" d="m423,285,37,0,0,164-19,14-18-14,0-164z" stroke-dashoffset="0" stroke="#000" stroke-linecap="butt" stroke-miterlimit="4" stroke-dasharray="none" stroke-width="1" fill="#F0F0F0"/>
    <text font-size="12px" font-family="Bitstream Vera Sans" xml:space="preserve" font-style="normal" y="321.854" x="440.051" font-weight="normal" fill="#000000"><tspan font-size="12px" font-family="Arial" style="text-anchor: middle; text-align: center;" y="321.854" x="440.051">100</tspan></text>
    <text font-size="40px" font-family="Bitstream Vera Sans" xml:space="preserve" transform="matrix(0, 1, -1, 0, 0, 0)" font-style="normal" y="-447.5" x="332" font-weight="normal" fill="#000000"><tspan font-size="13px" font-family="Arial" y="-447.5" x="332">Product</tspan></text>
    <g>
      <rect height="78" width="11" y="334" x="426.8" fill="#00F"/>
      <g stroke-linejoin="miter" stroke-dashoffset="0" stroke-linecap="butt" stroke-miterlimit="4" stroke-dasharray="none" stroke-width="1" fill="none">
        <path style="color: rgb(0, 0, 0);" stroke="#808081" d="m438.3,333.5-11.5,0,0,79.5"/>
        <path style="color: rgb(0, 0, 0);" stroke="#FFF" d="m437.8,334,0,78.5-10.5,0"/>
        <path style="color: rgb(0, 0, 0);" stroke="#FFF" d="m426.3,413.5,12.5,0,0-80.5"/>
        <path style="color: rgb(0, 0, 0);" stroke="#808081" d="m439.3,332.5-13.5,0,0,81.5"/>
      </g>
    </g>
    <g class="s1 s2 s3 s4 s5 s6 s7 s8 s9 s10 s11 s12 s13" transform="translate(2.58639, 0.586858)">
      <use xlink:href="#sVisuStates_s1" y="331.51" x="423.79" overflow="visible" class="_s1"/>
      <use xlink:href="#sVisuStates_s2" y="331.51" x="423.79" overflow="visible" class="_s2"/>
      <use xlink:href="#sVisuStates_s3" y="331.51" x="423.79" overflow="visible" class="_s3"/>
      <use xlink:href="#sVisuStates_s4" y="331.51" x="423.79" overflow="visible" class="_s4"/>
      <use xlink:href="#sVisuStates_s5" y="331.51" x="423.79" overflow="visible" class="_s5"/>
      <use xlink:href="#sVisuStates_s6" y="331.51" x="423.79" overflow="visible" class="_s6"/>
      <use xlink:href="#sVisuStates_s7" y="331.51" x="423.79" overflow="visible" class="_s7"/>
      <use xlink:href="#sVisuStates_s8" y="331.51" x="423.79" overflow="visible" class="_s8"/>
      <use xlink:href="#sVisuStates_s9" y="331.51" x="423.79" overflow="visible" class="_s9"/>
      <use xlink:href="#sVisuStates_s10" y="331.51" x="423.79" overflow="visible" class="_s10"/>
      <use xlink:href="#sVisuStates_s11" y="331.51" x="423.79" overflow="visible" class="_s11"/>
      <use xlink:href="#sVisuStates_s12" y="331.51" x="423.79" overflow="visible" class="_s12"/>
      <use xlink:href="#sVisuStates_s13" y="331.51" x="423.79" overflow="visible" class="_s13"/>
    </g>
  </g>
</svg>
