<?xml version="1.0" encoding="utf-8"?>
<!-- Generator: Adobe Illustrator 15.0.0, SVG Export Plug-In . SVG Version: 6.00 Build 0)  -->
<!DOCTYPE svg PUBLIC "-//W3C//DTD SVG 1.1//EN" "http://www.w3.org/Graphics/SVG/1.1/DTD/svg11.dtd">
<svg version="1.1" id="Ebene_1" xmlns="http://www.w3.org/2000/svg" xmlns:xlink="http://www.w3.org/1999/xlink" x="0px" y="0px"
	 width="595.28px" height="841.89px" viewBox="0 0 595.28 841.89" enable-background="new 0 0 595.28 841.89" xml:space="preserve">
<g>
	<path fill="#008D8E" d="M575.881,18.63c0,0.16,0,0.32,0,0.479c-0.973,5.027-1.119,10.881-2.16,15.84
		c-145.909-0.381-293.694-0.24-440.4-0.24c-6.669,0-12.666-0.202-18.24,0.96c-9.893,2.062-18.363,7.312-24.48,13.68
		c-6.498,6.764-11.109,15.059-12.72,25.68c-1.952,12.873,1.277,23.258,6,31.44c4.53,7.847,11.725,14.3,19.2,18.72l0,0
		c0,0-32.711,1.038-47.04-0.72c-13.713-1.683-24.495-7.622-32.16-15.84c-7.652-8.204-13.804-18.94-14.64-33.36
		c-0.827-14.249,4.057-27.366,11.52-36.48c6.948-8.485,16.561-15.779,29.28-18.48c12.487-2.651,29.878-1.68,46.32-1.68
		C256.047,18.63,416.893,18.63,575.881,18.63z"/>
	<path fill="#008D8E" d="M158.04,49.11c0.069,0,16.916-0.014,25.2,0.24
		c8.423,0.258,15.683,0.663,20.16,5.28c5.22,5.383,5.998,18.294,0.72,25.68c-1.768,2.474-4.138,3.861-6,5.52
		c5.959,3.608,11.543,8.174,10.56,18.72c-0.99,10.625-9.605,19.272-20.88,20.4c-6.054,0.605-13.057,0-20.16,0h-20.4L158.04,49.11
		C158.04,49.11,158.109,49.11,158.04,49.11z M185.88,77.43c2.546-1.353,3.874-6.217,2.4-9.36c-1.685-3.594-6.592-2.834-11.52-2.88
		l-2.16,13.2C179.072,78.158,183.022,78.948,185.88,77.43z M185.64,106.95c1.137-1,2.422-3.242,2.64-5.28
		c0.938-8.786-7.228-7.866-15.6-7.68l-2.16,14.64C176.645,108.26,182.491,109.72,185.64,106.95z"/>
	<path fill="#008D8E" d="M248.041,49.11l-5.28,38.4c-0.652,4.427-1.902,10.239-0.72,13.68
		c2.969,8.643,20.292,8.551,24.72,1.44c1.889-3.034,2.132-7.872,2.88-12.72c2-12.96,3.724-28.711,5.52-40.8c6.96,0,13.92,0,20.88,0
		c-1.633,13.457-3.729,28.44-5.76,42.24c-1.108,7.531-1.561,14.257-4.32,19.68c-2.561,5.033-6.392,9.549-11.76,12.24
		c-7.029,3.523-17.462,4.751-25.92,3.84c-15.753-1.697-28.559-10.576-27.84-28.56c0.163-4.069,0.894-8.291,1.44-12.48l4.901-36.96
		C226.781,49.11,241.08,49.11,248.041,49.11z"/>
	<path fill="#008D8E" d="M267.48,49.11c-1.152,8.688-2.005,17.675-3.36,26.16c-4,0-8,0-12,0
		c1.049-8.79,1.88-17.799,3.36-26.16C259.48,49.11,263.48,49.11,267.48,49.11z"/>
	<path fill="#008D8E" d="M315.24,49.11c6.8,0,13.601,0,20.4,0c-1.057,9.664-2.729,18.711-3.84,28.32
		c7.84,0.56,16.72,0.08,24.96,0.24c1.521-9.358,2.752-19.008,4.08-28.56c6.88,0,13.76,0,20.64,0
		c-3.308,25.492-7.172,50.428-10.56,75.84c-6.88,0-13.761,0-20.641,0c1.061-9.74,2.714-18.887,3.84-28.56
		c-7.84-0.56-16.72-0.08-24.96-0.24c-1.451,9.588-2.891,19.189-4.08,29.04c-6.96,0-13.92,0-20.88,0
		C308.053,100.003,311.174,74.083,315.24,49.11z"/>
	<path fill="#008D8E" d="M420.841,49.11c-2.418,19.582-5.343,38.657-8.16,57.84c8.48,0,16.96,0,25.44,0
		c-0.666,6.134-1.699,11.901-2.4,18c-15.36,0-30.72,0-46.08,0c3.366-25.194,7.151-50.77,10.641-75.84
		C400.281,49.11,414.121,49.11,420.841,49.11z"/>
	<path fill="#008D8E" d="M500.041,49.11c-0.544,5.537-1.413,10.748-2.16,16.08c-7.521,0-15.04,0-22.561,0
		l-1.92,12.72l22.801,0.24l-2.4,16.08c-7.521,0-15.04,0-22.561,0l-1.92,12.48l23.761,0.24l-2.641,18c-14.8,0-29.6,0-44.399,0
		c3.415-25.144,10.646-75.84,10.646-75.84S485.721,49.11,500.041,49.11z"/>
	<path fill="#008D8E" d="M517.081,49.11c10.022,0.069,19.746-0.294,29.04,0.48
		c6.436,0.536,11.451,1.205,15.359,4.32c4.205,3.352,7.178,9.074,7.681,15.6c0.991,12.873-4.987,23.708-16.32,26.64
		c5.555,9.725,11.585,18.975,17.04,28.8c-7.52,0-15.04,0-22.561,0c0,0-11.644-20.458-16.319-28.56
		c-1.323,9.477-2.673,18.927-3.84,28.56c-6.96,0-13.92,0-20.88,0C509.779,99.569,513.229,74.139,517.081,49.11z M548.761,73.83
		c0.115-7.713-5.11-9.378-12.96-8.88l-0.395,0.002c-0.753,5.806-1.782,12.141-2.485,17.998
		C542.109,84.197,548.647,81.439,548.761,73.83z"/>
</g>
</svg>
